<svg width="48" height="48" viewBox="0 0 48 48" fill="none" xmlns="http://www.w3.org/2000/svg">
<g clip-path="url(#clip0_25_184)">
<path d="M18 0.83398C18.2928 1.18982 18.4722 1.6253 18.515 2.08415C18.5578 2.543 18.462 3.00414 18.24 3.40798C16.5056 6.5924 15.5998 10.1619 15.606 13.788C15.606 25.851 25.44 35.619 37.56 35.619C39.141 35.619 40.68 35.454 42.159 35.139C42.6124 35.0408 43.0846 35.0784 43.5168 35.2469C43.949 35.4155 44.3219 35.7077 44.589 36.087C44.871 36.4813 45.0147 36.9578 44.9979 37.4423C44.9811 37.9268 44.8046 38.3921 44.496 38.766C42.1431 41.6563 39.1747 43.9851 35.8075 45.5825C32.4403 47.18 28.759 48.0059 25.032 48C11.202 48 0 36.858 0 23.13C0 12.798 6.342 3.93598 15.372 0.17998C15.8218 -0.0101245 16.3212 -0.0491426 16.795 0.0687869C17.2689 0.186716 17.6918 0.455226 18 0.83398ZM14.574 3.93298C11.1018 5.79547 8.19911 8.56391 6.17439 11.9441C4.14968 15.3242 3.0786 19.1898 3.075 23.13C3.075 35.19 12.912 44.958 25.032 44.958C27.9343 44.963 30.8088 44.3923 33.4892 43.279C36.1695 42.1657 38.6024 40.5318 40.647 38.472C39.636 38.598 38.607 38.661 37.56 38.661C23.73 38.661 12.531 27.519 12.531 13.791C12.531 10.29 13.257 6.95698 14.574 3.93298Z" fill="white"/>
<path d="M32.382 9.44403C32.4251 9.31411 32.5079 9.20105 32.6189 9.12092C32.7298 9.04079 32.8632 8.99766 33 8.99766C33.1369 8.99766 33.2703 9.04079 33.3812 9.12092C33.4922 9.20105 33.575 9.31411 33.618 9.44403L34.779 12.93C35.298 14.484 36.516 15.702 38.07 16.221L41.556 17.382C41.686 17.425 41.799 17.5079 41.8791 17.6189C41.9593 17.7298 42.0024 17.8632 42.0024 18C42.0024 18.1369 41.9593 18.2703 41.8791 18.3812C41.799 18.4921 41.686 18.575 41.556 18.618L38.07 19.779C37.3036 20.0344 36.6072 20.4647 36.036 21.0359C35.4647 21.6072 35.0344 22.3036 34.779 23.07L33.618 26.556C33.575 26.6859 33.4922 26.799 33.3812 26.8791C33.2703 26.9593 33.1369 27.0024 33 27.0024C32.8632 27.0024 32.7298 26.9593 32.6189 26.8791C32.5079 26.799 32.4251 26.6859 32.382 26.556L31.221 23.07C30.9657 22.3036 30.5354 21.6072 29.9641 21.0359C29.3929 20.4647 28.6965 20.0344 27.93 19.779L24.444 18.618C24.3141 18.575 24.2011 18.4921 24.1209 18.3812C24.0408 18.2703 23.9977 18.1369 23.9977 18C23.9977 17.8632 24.0408 17.7298 24.1209 17.6189C24.2011 17.5079 24.3141 17.425 24.444 17.382L27.93 16.221C28.6965 15.9657 29.3929 15.5353 29.9641 14.9641C30.5354 14.3929 30.9657 13.6964 31.221 12.93L32.382 9.44403ZM41.589 0.297024C41.6187 0.211603 41.6742 0.137532 41.7478 0.0851093C41.8215 0.0326863 41.9096 0.0045166 42 0.0045166C42.0905 0.0045166 42.1786 0.0326863 42.2523 0.0851093C42.3259 0.137532 42.3814 0.211603 42.411 0.297024L43.185 2.61902C43.53 3.65702 44.343 4.47002 45.381 4.81502L47.703 5.58902C47.7885 5.61864 47.8625 5.67413 47.915 5.74779C47.9674 5.82145 47.9956 5.90962 47.9956 6.00002C47.9956 6.09043 47.9674 6.1786 47.915 6.25226C47.8625 6.32591 47.7885 6.38141 47.703 6.41103L45.381 7.18502C44.8695 7.35519 44.4047 7.64227 44.0235 8.02347C43.6423 8.40467 43.3552 8.86949 43.185 9.38103L42.411 11.703C42.3814 11.7884 42.3259 11.8625 42.2523 11.9149C42.1786 11.9674 42.0905 11.9955 42 11.9955C41.9096 11.9955 41.8215 11.9674 41.7478 11.9149C41.6742 11.8625 41.6187 11.7884 41.589 11.703L40.815 9.38103C40.6449 8.86949 40.3578 8.40467 39.9766 8.02347C39.5954 7.64227 39.1306 7.35519 38.619 7.18502L36.297 6.41103C36.2116 6.38141 36.1375 6.32591 36.0851 6.25226C36.0327 6.1786 36.0045 6.09043 36.0045 6.00002C36.0045 5.90962 36.0327 5.82145 36.0851 5.74779C36.1375 5.67413 36.2116 5.61864 36.297 5.58902L38.619 4.81502C39.657 4.47002 40.47 3.65702 40.815 2.61902L41.589 0.300025V0.297024Z" fill="white"/>
</g>
<defs>
<clipPath id="clip0_25_184">
<rect width="48" height="48" fill="white"/>
</clipPath>
</defs>
</svg>
